<svg width="180" height="330" viewBox="0 0 180 330" fill="none" xmlns="http://www.w3.org/2000/svg">
<path d="M79.394 325.606C82.322 328.535 86.161 330 90 330C93.839 330 97.678 328.535 100.607 325.606L175.607 250.606C181.465 244.749 181.465 235.251 175.607 229.393C169.749 223.536 160.251 223.536 154.394 229.393L105 278.787V15C105 6.716 98.284 0 90 0C81.716 0 75 6.716 75 15V278.787L25.606 229.393C19.748 223.536 10.251 223.536 4.39301 229.393C-1.46499 235.25 -1.46499 244.748 4.39301 250.606L79.394 325.606Z" fill="#C55353"/>
</svg>
