<svg width="31" height="31" viewBox="0 0 31 31" fill="none" xmlns="http://www.w3.org/2000/svg">
<path d="M7.52402 10.1016H1.46829C1.19952 10.1016 0.98175 10.3195 0.98175 10.5882V30.0426C0.98175 30.3114 1.19952 30.5292 1.46829 30.5292H7.52402C7.79278 30.5292 8.01055 30.3114 8.01055 30.0426V10.5882C8.01055 10.3195 7.79278 10.1016 7.52402 10.1016Z" fill="black"/>
<path d="M4.49831 0.430328C2.29489 0.430328 0.502289 2.22098 0.502289 4.42197C0.502289 6.62394 2.29489 8.41527 4.49831 8.41527C6.69999 8.41527 8.49113 6.62385 8.49113 4.42197C8.49122 2.22098 6.69999 0.430328 4.49831 0.430328Z" fill="black"/>
<path d="M22.9272 9.61809C20.495 9.61809 18.697 10.6637 17.6065 11.8517V10.5881C17.6065 10.3195 17.3887 10.1016 17.12 10.1016H11.3206C11.0518 10.1016 10.834 10.3195 10.834 10.5881V30.0426C10.834 30.3114 11.0518 30.5292 11.3206 30.5292H17.363C17.6318 30.5292 17.8496 30.3114 17.8496 30.0426V20.4172C17.8496 17.1736 18.7306 15.91 20.9916 15.91C23.4541 15.91 23.6498 17.9357 23.6498 20.584V30.0427C23.6498 30.3115 23.8676 30.5292 24.1363 30.5292H30.1811C30.4498 30.5292 30.6676 30.3115 30.6676 30.0427V19.3716C30.6676 14.5486 29.7479 9.61809 22.9272 9.61809Z" fill="black"/>
</svg>
