<svg width="34" height="33" viewBox="0 0 34 33" fill="none" xmlns="http://www.w3.org/2000/svg">
<path d="M17.2443 0.856599C8.01912 0.852918 0.54718 8.2234 0.54718 17.3205C0.54718 24.5143 5.22134 30.6294 11.7308 32.8751C12.6075 33.0924 12.4732 32.4775 12.4732 32.0578V29.2046C7.41107 29.79 7.2059 26.4839 6.86643 25.9317C6.18004 24.7757 4.55733 24.4812 5.04228 23.9289C6.19496 23.3436 7.37003 24.0762 8.73162 26.0606C9.71644 27.5001 11.6376 27.2571 12.6112 27.0178C12.8238 26.1526 13.2789 25.3795 13.9056 24.7794C8.66074 23.8516 6.47474 20.6929 6.47474 16.9377C6.47474 15.1153 7.08279 13.4402 8.27651 12.089C7.51552 9.8617 8.34739 7.95465 8.4593 7.67117C10.6266 7.47973 12.8798 9.2027 13.0551 9.33892C14.2861 9.01126 15.6925 8.83823 17.2667 8.83823C18.8484 8.83823 20.2585 9.01862 21.5007 9.34996C21.9222 9.03335 24.0112 7.55336 26.0256 7.73376C26.1338 8.01724 26.947 9.88011 26.2308 12.078C27.4394 13.4328 28.055 15.1227 28.055 16.9487C28.055 20.7113 25.854 23.8737 20.5942 24.7868C21.0447 25.224 21.4024 25.7455 21.6465 26.3207C21.8905 26.8959 22.0159 27.5134 22.0155 28.137V32.2787C22.0453 32.6101 22.0155 32.9377 22.575 32.9377C29.1815 30.7398 33.9377 24.5806 33.9377 17.3242C33.9377 8.2234 26.4621 0.856599 17.2443 0.856599Z" fill="black"/>
</svg>
