<svg width="27" height="35" viewBox="0 0 27 35" fill="none" xmlns="http://www.w3.org/2000/svg">
<path d="M23.0444 0.752747H4.18904C2.09526 0.752747 0.398712 2.45006 0.398712 4.54308V30.2536C0.398712 32.3467 2.09526 34.044 4.18904 34.044H23.0429C25.1367 34.044 26.8332 32.3467 26.8332 30.2536V4.54308C26.8348 2.45006 25.1359 0.752747 23.0444 0.752747ZM3.95101 13.5299C3.95101 12.6415 4.67193 11.9221 5.55887 11.9221H6.12135C5.52172 11.2595 5.1533 10.3832 5.1533 9.41744C5.1533 7.35323 6.82787 5.67942 8.89209 5.67942C10.9578 5.67942 12.6309 7.35247 12.6309 9.4182C12.6309 10.3825 12.2624 11.2595 11.6613 11.9221H12.1988C13.0872 11.9221 13.8066 12.6415 13.8066 13.5299V16.2423C13.8066 17.0929 13.1433 17.7812 12.3094 17.8388H5.44819C4.61432 17.7812 3.95101 17.0929 3.95101 16.2423V13.5299ZM21.7656 29.1165H5.46714C4.63024 29.1165 3.95101 28.4373 3.95101 27.6004C3.95101 26.7635 4.63024 26.0843 5.46714 26.0843H21.7656C22.6025 26.0843 23.2817 26.7635 23.2817 27.6004C23.2817 28.4373 22.6025 29.1165 21.7656 29.1165ZM21.7656 23.4311H5.46714C4.63024 23.4311 3.95101 22.7518 3.95101 21.9149C3.95101 21.078 4.63024 20.3988 5.46714 20.3988H21.7656C22.6025 20.3988 23.2817 21.078 23.2817 21.9149C23.2817 22.7518 22.6025 23.4311 21.7656 23.4311ZM21.7656 17.7456H16.8381C16.0012 17.7456 15.322 17.0663 15.322 16.2294C15.322 15.3925 16.0012 14.7133 16.8381 14.7133H21.7656C22.6025 14.7133 23.2817 15.3925 23.2817 16.2294C23.2817 17.0663 22.6025 17.7456 21.7656 17.7456Z" fill="black"/>
</svg>
